<svg width="1200" height="700" viewBox="0 0 1200 700" xmlns="http://www.w3.org/2000/svg" fill="none">
  <defs>
    <linearGradient id="bg" x1="0" y1="0" x2="1200" y2="700" gradientUnits="userSpaceOnUse">
      <stop stop-color="#3B2B22"/>
      <stop offset="1" stop-color="#A56F46"/>
    </linearGradient>
  </defs>
  <rect width="1200" height="700" fill="url(#bg)"/>
  <rect x="80" y="70" width="1040" height="560" rx="34" fill="#F8EFE3" fill-opacity="0.94"/>
  <rect x="120" y="110" width="106" height="12" rx="6" fill="#C1976C"/>
  <rect x="120" y="150" width="460" height="210" rx="24" fill="#2F241D"/>
  <circle cx="220" cy="235" r="58" fill="#BE9B6D"/>
  <rect x="310" y="190" width="220" height="20" rx="10" fill="#F1D8B4"/>
  <rect x="310" y="228" width="180" height="16" rx="8" fill="#DDBA8F"/>
  <rect x="310" y="258" width="210" height="16" rx="8" fill="#DDBA8F"/>
  <rect x="120" y="390" width="460" height="200" rx="24" fill="#F5E7D3"/>
  <rect x="150" y="432" width="160" height="16" rx="8" fill="#AA7D51"/>
  <rect x="150" y="462" width="320" height="12" rx="6" fill="#C79E74"/>
  <rect x="150" y="486" width="280" height="12" rx="6" fill="#D6B58F"/>
  <rect x="620" y="150" width="460" height="440" rx="24" fill="#2E2722"/>
  <rect x="660" y="190" width="380" height="180" rx="18" fill="#43372F"/>
  <rect x="660" y="396" width="170" height="14" rx="7" fill="#E5C7A2"/>
  <rect x="660" y="424" width="320" height="11" rx="6" fill="#C9A983"/>
  <rect x="660" y="447" width="270" height="11" rx="6" fill="#C9A983"/>
  <rect x="660" y="492" width="190" height="56" rx="28" fill="#BE9B6D"/>
  <text x="140" y="338" fill="#F6E7D3" font-family="Arial" font-size="44" font-weight="700">Hafenblick</text>
</svg>
